<?xml version="1.0" encoding="UTF-8"?>
<svg version="1.1" xmlns="http://www.w3.org/2000/svg" width="121" height="136">
<path d="M0 0 C39.93 0 79.86 0 121 0 C121 44.88 121 89.76 121 136 C81.07 136 41.14 136 0 136 C0 91.12 0 46.24 0 0 Z " fill="#0A0A0B" transform="translate(0,0)"/>
<path d="M0 0 C39.93 0 79.86 0 121 0 C121 38.28 121 76.56 121 116 C115.72 115.67 110.44 115.34 105 115 C105.01047363 113.52313721 105.02094727 112.04627441 105.03173828 110.5246582 C105.06822066 104.99131744 105.09100233 99.45798709 105.10986328 93.92456055 C105.11985697 91.53977667 105.13345644 89.15500485 105.15087891 86.77026367 C105.17542119 83.32207241 105.18654976 79.8740446 105.1953125 76.42578125 C105.20563507 75.37731522 105.21595764 74.32884918 105.22659302 73.24861145 C105.22815635 62.69190954 103.97567058 52.31615416 100.3125 42.375 C100.05049805 41.65844238 99.78849609 40.94188477 99.51855469 40.20361328 C95.98664798 30.92766704 91.70840257 23.10552832 83.31787109 17.44433594 C76.8682339 14.6366793 70.01057029 15.00859363 63.07739258 15.14233398 C60.43794746 15.18749234 57.80552956 15.16300368 55.16601562 15.13085938 C43.55686457 15.04653619 43.55686457 15.04653619 33.53442383 20.40698242 C31.64706143 22.36641594 30.01159104 24.21369881 28.625 26.5625 C28.18414063 27.28566406 27.74328125 28.00882813 27.2890625 28.75390625 C26.86367188 29.49511719 26.43828125 30.23632812 26 31 C25.5153125 31.70253906 25.030625 32.40507813 24.53125 33.12890625 C22.28213031 37.34600567 21.14429063 41.78259168 19.875 46.375 C19.61074219 47.29539063 19.34648437 48.21578125 19.07421875 49.1640625 C16.55589383 58.11242516 15.82708045 66.57226293 15.68359375 75.83984375 C15.66281265 76.96193741 15.64203156 78.08403107 15.62062073 79.24012756 C15.5555137 82.80585925 15.49642159 86.37166127 15.4375 89.9375 C15.39427781 92.36263733 15.35066236 94.78776768 15.30664062 97.21289062 C15.19987232 103.14185597 15.09849648 109.0708917 15 115 C10.05 115.33 5.1 115.66 0 116 C0 77.72 0 39.44 0 0 Z " fill="#EFEFEF" transform="translate(0,0)"/>
<path d="M0 0 C4.62 0 9.24 0 14 0 C18.04861111 7.23842593 18.04861111 7.23842593 17.8125 10.9375 C17 13 17 13 16 14 C13.02722679 14.18025762 10.09984744 14.27812195 7.125 14.3125 C6.29613281 14.34150391 5.46726562 14.37050781 4.61328125 14.40039062 C3.41638672 14.41295898 3.41638672 14.41295898 2.1953125 14.42578125 C1.46328613 14.44036377 0.73125977 14.45494629 -0.02294922 14.4699707 C-2 14 -2 14 -5 10 C-3.35 6.7 -1.7 3.4 0 0 Z " fill="#2E0202" transform="translate(70,62)"/>
<path d="M0 0 C4.62 0 9.24 0 14 0 C18.09326923 8.43461538 18.09326923 8.43461538 17.62109375 11.296875 C17.41613281 11.85890625 17.21117188 12.4209375 17 13 C13.16596923 14.22571316 9.43865923 14.16794399 5.4375 14.1875 C4.76525391 14.19974609 4.09300781 14.21199219 3.40039062 14.22460938 C-0.29878237 14.23562975 -1.83971933 14.10685378 -5 12 C-3.65731345 7.66208962 -2.06787321 4.13574643 0 0 Z " fill="#2D0202" transform="translate(36,62)"/>
<path d="M0 0 C1.68439826 3.36879651 -0.28656298 6.76297609 -1.375 10.1875 C-1.84600991 11.67946271 -2.31222201 13.17294924 -2.7734375 14.66796875 C-2.98403809 15.33078857 -3.19463867 15.9936084 -3.41162109 16.67651367 C-5.0365666 23.0933628 -5.19489116 29.5137137 -5.31640625 36.08984375 C-5.33718735 37.03436905 -5.35796844 37.97889435 -5.37937927 38.95204163 C-5.44437354 41.94712573 -5.503525 44.94229193 -5.5625 47.9375 C-5.60573297 49.97722178 -5.64934873 52.01693548 -5.69335938 54.05664062 C-5.80000305 59.03767788 -5.9014094 64.0187971 -6 69 C-8 67 -8 67 -8.1953125 63.0859375 C-8.18200376 61.51550649 -8.15813602 59.94513779 -8.125 58.375 C-8.11597656 57.57320312 -8.10695313 56.77140625 -8.09765625 55.9453125 C-8.07406223 53.96341477 -8.03819065 51.98167019 -8 50 C-8.33 54.62 -8.66 59.24 -9 64 C-9.33 64 -9.66 64 -10 64 C-10.02917237 59.47918034 -10.0468568 54.95838512 -10.0625 50.4375 C-10.07087891 49.16068359 -10.07925781 47.88386719 -10.08789062 46.56835938 C-10.09111328 45.32763672 -10.09433594 44.08691406 -10.09765625 42.80859375 C-10.10289307 41.67220459 -10.10812988 40.53581543 -10.11352539 39.36499023 C-9.95723314 34.7323534 -9.46808081 30.40424242 -8 26 C-7.87625 24.948125 -7.7525 23.89625 -7.625 22.8125 C-7.04601014 19.28066183 -6.14333015 16.48332537 -4.828125 13.1953125 C-3.56879201 9.85689202 -2.62262577 6.4345155 -1.6484375 3.00390625 C-1 1 -1 1 0 0 Z " fill="#A8A8A8" transform="translate(21,38)"/>
<path d="M0 0 C5 0 5 0 7.45703125 2.3359375 C8.23433594 3.33882813 9.01164062 4.34171875 9.8125 5.375 C10.60269531 6.37273437 11.39289063 7.37046875 12.20703125 8.3984375 C14 11 14 11 14 13 C9.38 13 4.76 13 0 13 C0 8.71 0 4.42 0 0 Z " fill="#171717" transform="translate(63,85)"/>
<path d="M0 0 C2.97 0 5.94 0 9 0 C9 4.29 9 8.58 9 13 C6.03 13 3.06 13 0 13 C0 8.71 0 4.42 0 0 Z " fill="#121212" transform="translate(52,85)"/>
<path d="M0 0 C0.33 0 0.66 0 1 0 C1 9.9 1 19.8 1 30 C1.66 30 2.32 30 3 30 C3.33 29.01 3.66 28.02 4 27 C4.08126087 29.08268593 4.13930839 31.16628658 4.1875 33.25 C4.22230469 34.41015625 4.25710937 35.5703125 4.29296875 36.765625 C3.97927287 40.22882755 3.46132762 41.59230906 1 44 C0.34 44 -0.32 44 -1 44 C-0.67 29.48 -0.34 14.96 0 0 Z " fill="#949494" transform="translate(106,71)"/>
<path d="M0 0 C0.99 0 1.98 0 3 0 C3 4.29 3 8.58 3 13 C2.01 13 1.02 13 0 13 C0 8.71 0 4.42 0 0 Z " fill="#1F1F1F" transform="translate(63,85)"/>
<path d="M0 0 C0.99 0 1.98 0 3 0 C3 4.29 3 8.58 3 13 C2.01 13 1.02 13 0 13 C0 8.71 0 4.42 0 0 Z " fill="#1F1F1F" transform="translate(58,85)"/>
<path d="M0 0 C0.99 0 1.98 0 3 0 C3 4.29 3 8.58 3 13 C2.01 13 1.02 13 0 13 C0 8.71 0 4.42 0 0 Z " fill="#1F1F1F" transform="translate(52,85)"/>
<path d="M0 0 C0.625 1.875 0.625 1.875 1 4 C-1 6 -1 6 -2.87939453 6.22705078 C-3.62302246 6.21657715 -4.36665039 6.20610352 -5.1328125 6.1953125 C-5.93847656 6.18886719 -6.74414062 6.18242188 -7.57421875 6.17578125 C-8.41597656 6.15902344 -9.25773437 6.14226562 -10.125 6.125 C-11.39923828 6.11146484 -11.39923828 6.11146484 -12.69921875 6.09765625 C-14.79959884 6.07405647 -16.89983444 6.03818483 -19 6 C-19 5.67 -19 5.34 -19 5 C-17.87980469 4.97421875 -16.75960937 4.9484375 -15.60546875 4.921875 C-14.13277354 4.86559365 -12.6601188 4.80824632 -11.1875 4.75 C-10.44951172 4.73582031 -9.71152344 4.72164063 -8.95117188 4.70703125 C-4.47562582 4.53490953 -4.47562582 4.53490953 -0.98828125 1.953125 C-0.66214844 1.30859375 -0.33601563 0.6640625 0 0 Z " fill="#1B0303" transform="translate(87,70)"/>
<path d="M0 0 C0.33 0 0.66 0 1 0 C1 3.3 1 6.6 1 10 C0.01 10 -0.98 10 -2 10 C-2.25 3.375 -2.25 3.375 0 0 Z " fill="#1E1E1E" transform="translate(49,88)"/>
<path d="M0 0 C1.70884005 1.62339805 3.37446717 3.29319053 5 5 C5 5.66 5 6.32 5 7 C3.35 7 1.7 7 0 7 C0 4.69 0 2.38 0 0 Z " fill="#161616" transform="translate(72,91)"/>
<path d="M0 0 C0.33 0 0.66 0 1 0 C1.125 7.75 1.125 7.75 0 10 C-0.66 10 -1.32 10 -2 10 C-1.85950482 8.52031676 -1.71245174 7.04125484 -1.5625 5.5625 C-1.48128906 4.73878906 -1.40007813 3.91507813 -1.31640625 3.06640625 C-1 1 -1 1 0 0 Z " fill="#C8C8C8" transform="translate(14,60)"/>
<path d="M0 0 C0.33 0 0.66 0 1 0 C1 2.64 1 5.28 1 8 C0.01 8.33 -0.98 8.66 -2 9 C-2 7.02 -2 5.04 -2 3 C-1.34 3 -0.68 3 0 3 C0 2.01 0 1.02 0 0 Z " fill="#C0C0C0" transform="translate(109,98)"/>
<path d="M0 0 C1.5 1.375 1.5 1.375 3 3 C3 3.66 3 4.32 3 5 C4.32 5.33 5.64 5.66 7 6 C4.69 5.67 2.38 5.34 0 5 C-0.33 4.01 -0.66 3.02 -1 2 C-0.67 1.34 -0.34 0.68 0 0 Z " fill="#1E0303" transform="translate(32,70)"/>
</svg>
